<svg width="29" height="29" viewBox="0 0 29 29" fill="none" xmlns="http://www.w3.org/2000/svg">
<path d="M11.7381 0.26327C12.1386 0.187317 12.7117 0.10446 13.0155 0.0699363C13.3193 0.0354125 13.9269 0.00779347 14.3619 0.000888707C14.7969 -0.00601606 15.4805 0.0285078 15.881 0.0630316C16.2814 0.10446 16.9857 0.214936 17.4483 0.304698C17.9179 0.401365 18.629 0.587793 19.0364 0.725889C19.4507 0.857079 20.1688 1.15398 20.6452 1.38184C21.1217 1.6097 21.7431 1.94113 22.0262 2.11375C22.3093 2.28637 22.841 2.65232 23.2 2.9216C23.559 3.19089 24.1321 3.67422 24.4705 3.99875C24.8088 4.32327 25.3198 4.86875 25.6029 5.20708C25.8929 5.54541 26.3279 6.13922 26.5833 6.51898C26.8319 6.89875 27.191 7.52017 27.3912 7.89994C27.5845 8.2797 27.8538 8.87351 27.985 9.21184C28.1231 9.55017 28.3095 10.1164 28.4131 10.4547C28.5098 10.793 28.6479 11.3868 28.7238 11.7666C28.7998 12.1464 28.8895 12.7609 28.931 13.1337C28.9655 13.4997 29 14.1349 29 14.5492C29 14.9566 28.9655 15.6126 28.931 16.013C28.8895 16.4135 28.779 17.1247 28.6824 17.6011C28.5857 18.0776 28.3855 18.8371 28.2336 19.2928C28.0817 19.7485 27.771 20.508 27.5431 20.9845C27.3152 21.4609 26.9217 22.1583 26.6731 22.538C26.4245 22.9178 26.0793 23.4149 25.8998 23.6428C25.7271 23.8707 25.2576 24.3954 24.8571 24.8097C24.4567 25.2171 23.8974 25.7418 23.6143 25.9766C23.3312 26.2045 22.834 26.5704 22.5095 26.7845C22.185 27.0054 21.6257 27.3368 21.2667 27.5302C20.9076 27.7235 20.2586 28.0204 19.8305 28.193C19.4093 28.3726 18.9605 28.5107 18.85 28.5107C18.7395 28.5107 18.56 28.4692 18.4495 28.414C18.346 28.3657 18.2355 28.2621 18.194 28.193C18.1526 28.1171 18.1112 26.9502 18.0905 25.369C18.056 22.7107 18.049 22.6692 17.8833 22.2273C17.7867 21.9787 17.5933 21.6128 17.1929 21.0535L17.4138 21.019C17.5381 21.0052 17.9248 20.9361 18.2631 20.8809C18.6014 20.8187 19.1676 20.6737 19.506 20.5633C19.8443 20.4459 20.3621 20.2318 20.6452 20.0868C20.9283 19.9349 21.3702 19.6449 21.6257 19.4309C21.8881 19.2237 22.2402 18.8578 22.4129 18.623C22.5924 18.3814 22.8686 17.9049 23.0343 17.5666C23.2 17.2283 23.3933 16.6828 23.4693 16.3583C23.5452 16.0337 23.6419 15.4883 23.6902 15.1499C23.7386 14.784 23.7524 14.1626 23.7317 13.6309C23.7041 13.0233 23.6488 12.5676 23.5452 12.2154C23.4624 11.9323 23.3036 11.4973 23.1793 11.2487C23.0619 11.0002 22.8133 10.5997 22.2955 9.90232L22.4129 9.45351C22.5026 9.14279 22.5371 8.76303 22.5371 8.21065C22.5302 7.61684 22.4957 7.2716 22.3783 6.8297C22.2886 6.50517 22.185 6.18065 22.1436 6.1116C22.0676 5.99422 22.0055 5.98041 21.6464 6.02184C21.4186 6.04256 21.0181 6.13232 20.7488 6.21517C20.4795 6.29113 20.0169 6.47756 19.7131 6.62256C19.4093 6.76756 18.926 7.03684 18.125 7.54089L17.7798 7.45803C17.5864 7.4097 17.186 7.32684 16.8821 7.2716C16.5783 7.21637 15.9086 7.14041 15.3976 7.09898C14.7348 7.05065 14.1962 7.05065 13.5333 7.10589C13.0224 7.14732 12.2076 7.25779 10.8405 7.52017L10.5436 7.31994C10.3848 7.20946 9.95667 6.96779 9.59762 6.77446C9.23857 6.58113 8.70691 6.34636 8.42381 6.2497C8.14071 6.15303 7.685 6.05637 7.42262 6.02875C6.93929 5.98041 6.93929 5.98041 6.84952 6.18065C6.79429 6.29113 6.69762 6.62946 6.62167 6.93327C6.53191 7.31303 6.49048 7.72041 6.49738 8.24518C6.49738 8.7216 6.54571 9.17041 6.73214 9.90232L6.36619 10.4202C6.15905 10.7033 5.90357 11.1245 5.8 11.3523C5.68952 11.5802 5.53071 12.0152 5.44786 12.319C5.31667 12.7816 5.29595 13.0509 5.29595 13.9761C5.29595 14.6804 5.33738 15.3018 5.40643 15.7023C5.46857 16.0407 5.61357 16.6068 5.73095 16.9452C5.84833 17.2835 6.03476 17.7392 6.15905 17.9464C6.27643 18.1535 6.5181 18.5057 6.69071 18.7335C6.86333 18.9545 7.19476 19.2859 7.42262 19.4723C7.65048 19.6587 8.09929 19.9487 8.42381 20.1145C8.74833 20.2802 9.25929 20.4942 9.5631 20.5909C9.86691 20.6876 10.3986 20.8118 10.7369 20.874C11.0752 20.9361 11.4619 21.0052 11.8071 21.0535L11.6414 21.2814C11.5517 21.3987 11.3998 21.668 11.2962 21.8683C11.1995 22.0616 11.0752 22.4068 10.9371 23.0214L10.4883 23.1871C10.1293 23.3252 9.90833 23.3528 9.32143 23.3597C8.64476 23.3666 8.5619 23.3528 8.14762 23.1526C7.89905 23.0352 7.55381 22.7935 7.36738 22.6209C7.18786 22.4414 6.90476 22.0892 6.74595 21.8337C6.58024 21.5714 6.30405 21.2399 6.13833 21.0811C5.97262 20.9292 5.69643 20.7221 5.52381 20.6185C5.35119 20.5218 5.02667 20.3976 4.79881 20.3561C4.4881 20.294 4.32238 20.294 4.12214 20.3561C3.915 20.4183 3.86667 20.4666 3.86667 20.6047C3.86667 20.7152 3.94952 20.8464 4.09452 20.9707C4.22571 21.0742 4.47429 21.2607 4.64691 21.3849C4.82643 21.5023 5.09571 21.7716 5.25452 21.9718C5.41333 22.1652 5.71714 22.7037 5.9381 23.1595C6.26262 23.8361 6.40071 24.0502 6.70452 24.3195C6.91167 24.5059 7.26381 24.7476 7.49167 24.858C7.74024 24.9823 8.16833 25.1066 8.5619 25.1757C9.12119 25.2723 9.32833 25.2792 9.95667 25.2102C10.371 25.1618 10.7438 25.1204 10.7852 25.1135C10.8543 25.0997 10.8819 25.4173 10.8957 26.5083C10.9095 27.5371 10.8888 27.979 10.8267 28.124C10.7783 28.2345 10.654 28.3657 10.5436 28.414C10.44 28.4692 10.2674 28.5107 10.15 28.5107C10.0326 28.5107 9.59072 28.3726 9.16952 28.193C8.74143 28.0204 8.09238 27.7235 7.73333 27.5302C7.37429 27.3368 6.815 27.0054 6.49048 26.7845C6.16595 26.5704 5.66881 26.2045 5.38571 25.9766C5.10262 25.7418 4.53643 25.2171 4.13595 24.8097C3.73548 24.3954 3.19 23.7602 2.92762 23.4011C2.65833 23.0421 2.29929 22.5104 2.11976 22.2273C1.94714 21.9442 1.62262 21.3366 1.40857 20.8809C1.19452 20.4252 0.897619 19.6864 0.752619 19.2445C0.600714 18.7957 0.407381 18.0499 0.310714 17.5873C0.220952 17.1178 0.110476 16.4135 0.0690476 16.013C0.0345238 15.6126 0 14.9773 0 14.5976C0 14.2178 0.0345238 13.5826 0.0690476 13.1821C0.110476 12.7816 0.220952 12.0842 0.310714 11.6285C0.400476 11.1728 0.59381 10.4616 0.731905 10.0404C0.87 9.61922 1.12548 8.95637 1.305 8.55589C1.48452 8.15541 1.80214 7.53398 2.01619 7.17494C2.23024 6.81589 2.63762 6.20827 2.92071 5.82851C3.20381 5.44875 3.69405 4.86184 4.01167 4.52351C4.32929 4.18517 4.87476 3.67422 5.2131 3.39113C5.55143 3.10113 6.15905 2.65232 6.55952 2.38994C6.96 2.12756 7.685 1.71327 8.18214 1.4647C8.67929 1.22303 9.51476 0.884698 10.0464 0.712079C10.5781 0.546365 11.3376 0.339222 11.7381 0.26327Z" fill="white"/>
</svg>
