<svg width="27" height="27" viewBox="0 0 27 27" fill="none" xmlns="http://www.w3.org/2000/svg">
<path d="M0.485353 1.45606C0.754993 1.11451 1.22237 0.647137 1.50999 0.431425L2.06724 0.017976L24.9148 0L25.5439 0.413449C25.8855 0.647137 26.3529 1.11451 27 2.08522V24.9148L26.5686 25.5439C26.3529 25.8855 25.8855 26.3529 24.9148 27H2.08522L1.45606 26.5866C1.11451 26.3529 0.647137 25.8855 0 24.9148V2.08522L0.485353 1.45606Z" fill="white"/>
<path d="M4.0446 5.1052C4.20638 4.78164 4.60186 4.35021 4.92542 4.15247C5.23102 3.95474 5.78827 3.79295 6.12982 3.79295C6.47136 3.79295 7.02862 3.95474 7.35219 4.15247C7.65778 4.35021 8.05325 4.78164 8.21504 5.08723C8.41278 5.50068 8.48468 5.9321 8.41277 6.48936C8.34087 7.11852 8.17909 7.42411 7.67576 7.87351C7.1185 8.37684 6.88481 8.46672 6.12982 8.46672C5.37483 8.46672 5.14114 8.37684 4.58388 7.89149C4.08055 7.42411 3.91877 7.11852 3.84686 6.48936C3.77496 5.9321 3.84686 5.50068 4.0446 5.1052Z" fill="#1F1F27"/>
<path d="M15.6032 10.8935C15.9807 10.6059 16.5739 10.2643 16.9154 10.1385C17.257 10.0127 17.994 9.92278 18.5333 9.90481C19.0726 9.90481 19.8815 10.0127 20.3309 10.1565C20.8522 10.3362 21.4094 10.7317 21.8948 11.253C22.4161 11.7923 22.7577 12.3855 22.9374 12.9967C23.1531 13.7337 23.2071 14.974 23.2071 23.2071H19.2523V19.486C19.2523 17.4188 19.1804 15.4594 19.0726 15.1179C18.9827 14.7763 18.731 14.3089 18.4973 14.0752C18.2636 13.8595 17.7603 13.6258 17.3648 13.5719C16.8435 13.482 16.4481 13.5539 15.9447 13.7876C15.5672 13.9854 15.1178 14.3629 14.9561 14.6685C14.7224 15.1179 14.6684 15.9268 14.5786 23.2071H10.8036V10.2643H14.5786V10.8935C14.5786 11.235 14.6684 11.5586 14.7583 11.6125C14.8482 11.6665 14.9381 11.6485 14.9381 11.5766C14.9201 11.4867 15.2257 11.1991 15.6032 10.8935Z" fill="#1F1F27"/>
<path d="M4.15245 23.2071V16.7357V10.2643H8.10718V23.2071H4.15245Z" fill="#1F1F27"/>
</svg>
